<?xml version="1.0" encoding="utf-8"?>
<!-- Generator: Adobe Illustrator 19.2.1, SVG Export Plug-In . SVG Version: 6.00 Build 0)  -->
<svg version="1.1" id="Layer_1" xmlns="http://www.w3.org/2000/svg" xmlns:xlink="http://www.w3.org/1999/xlink" x="0px" y="0px"
	 viewBox="0 0 42 42" style="enable-background:new 0 0 42 42;" xml:space="preserve">
<style type="text/css">
	.st0{fill:#FFFFFF;}
</style>
<path class="st0" d="M29,16.1c-0.3,0.1-1.1,0.4-1.8,0.5c0.5-0.3,1.2-1.1,1.4-1.8c-0.5,0.3-1.5,0.7-2.1,0.7c0,0,0,0,0,0
	c-0.6-0.6-1.4-1-2.4-1c-1.8,0-3.3,1.5-3.3,3.3c0,0.3,0,0.5,0.1,0.7h0c-2.5-0.1-5.4-1.3-7-3.4c-1,1.7-0.1,3.7,1,4.4
	c-0.4,0-1.1,0-1.4-0.4c0,1.1,0.5,2.7,2.5,3.2c-0.4,0.2-1.1,0.2-1.4,0.1c0.1,1,1.5,2.2,3,2.2C17,25.3,15.2,26.4,13,26
	c1.5,0.9,3.3,1.5,5.2,1.5c5.3,0,9.5-4.3,9.2-9.6c0,0,0,0,0,0c0,0,0,0,0,0c0,0,0,0,0,0C27.9,17.4,28.5,16.8,29,16.1z"/>
</svg>
