<?xml version="1.0" encoding="utf-8"?>
<!-- Generator: Adobe Illustrator 19.2.1, SVG Export Plug-In . SVG Version: 6.00 Build 0)  -->
<svg version="1.1" id="Layer_1" xmlns="http://www.w3.org/2000/svg" xmlns:xlink="http://www.w3.org/1999/xlink" x="0px" y="0px"
	 viewBox="0 0 42 42" style="enable-background:new 0 0 42 42;" xml:space="preserve">
<style type="text/css">
	.st0{fill:#FFFFFF;}
</style>
<g>
	<path class="st0" d="M24.1,18.9h4.4v6.7c0,1.6-1.3,3-3,3h-9.1c-1.6,0-3-1.3-3-3v-6.7h4.4c-0.4,0.6-0.7,1.4-0.7,2.2
		c0,2.1,1.7,3.8,3.8,3.8c2.1,0,3.8-1.7,3.8-3.8C24.8,20.3,24.6,19.5,24.1,18.9z M28.5,16.5v1.9h-4.8c-0.7-0.7-1.7-1.1-2.7-1.1
		c-1.1,0-2,0.4-2.7,1.1h-4.8v-1.9c0-1,0-1.7,0.7-2.2v3H15v-3.8c0.1-0.1,0.6,0,0.8,0v3.8l0.6,0v-3.7c0,0,0,0,0.1,0h0.8v3.8H18v-3.8
		h7.5C27.2,13.5,28.5,14.8,28.5,16.5z M27.1,15.2c0-0.3-0.2-0.5-0.5-0.5h-1.6c-0.3,0-0.5,0.2-0.5,0.5v1.6c0,0.3,0.2,0.5,0.5,0.5h1.6
		c0.3,0,0.5-0.2,0.5-0.5V15.2L27.1,15.2z M18,21.1c0-0.9,0.4-1.7,1-2.2c0.2-0.2,0.5-0.3,0.7-0.5c0.4-0.2,0.8-0.3,1.2-0.3
		c0.4,0,0.8,0.1,1.2,0.3c0.3,0.1,0.5,0.3,0.7,0.5c0.6,0.5,1,1.3,1,2.2c0,1.6-1.3,2.9-3,2.9S18,22.7,18,21.1z M18.8,21.1
		c0,1.2,1,2.2,2.2,2.2s2.2-1,2.2-2.2c0-1.2-1-2.2-2.2-2.2S18.8,19.9,18.8,21.1z"/>
</g>
</svg>
