<?xml version="1.0" encoding="utf-8"?>
<!-- Generator: Adobe Illustrator 19.2.1, SVG Export Plug-In . SVG Version: 6.00 Build 0)  -->
<svg version="1.1" id="Layer_1" xmlns="http://www.w3.org/2000/svg" xmlns:xlink="http://www.w3.org/1999/xlink" x="0px" y="0px"
	 viewBox="0 0 42 42" style="enable-background:new 0 0 42 42;" xml:space="preserve">
<style type="text/css">
	.st0{fill-rule:evenodd;clip-rule:evenodd;fill:#FFFFFF;}
</style>
<path class="st0" d="M20.8,26.5h1.1c0,0,0.3,0,0.5-0.2c0.2-0.2,0.2-0.5,0.2-0.5s0-1.6,0.7-1.8c0.7-0.2,1.6,1.5,2.5,2.2
	c0.7,0.5,1.3,0.4,1.3,0.4l2.5,0c0,0,1.3-0.1,0.7-1.2c-0.1-0.1-0.4-0.8-1.9-2.2c-1.6-1.5-1.4-1.3,0.5-3.9c1.2-1.6,1.6-2.5,1.5-3
	c-0.1-0.4-1-0.3-1-0.3l-2.9,0c0,0-0.2,0-0.4,0.1c-0.2,0.1-0.3,0.3-0.3,0.3s-0.5,1.2-1.1,2.3c-1.3,2.2-1.8,2.3-2,2.2
	c-0.5-0.3-0.4-1.3-0.4-2c0-2.1,0.3-3-0.6-3.2c-0.3-0.1-0.5-0.1-1.3-0.1c-1,0-1.9,0-2.4,0.2c-0.3,0.2-0.6,0.5-0.4,0.5
	c0.2,0,0.6,0.1,0.8,0.4C19,17.1,19,18,19,18s0.2,2.5-0.4,2.8c-0.4,0.2-0.9-0.2-2-2.2c-0.6-1-1-2.2-1-2.2s-0.1-0.2-0.2-0.3
	C15.1,16,14.8,16,14.8,16l-2.7,0c0,0-0.4,0-0.6,0.2c-0.1,0.2,0,0.5,0,0.5s2.1,5.1,4.5,7.6C18.3,26.6,20.8,26.5,20.8,26.5z"/>
</svg>
