<?xml version="1.0" encoding="utf-8"?>
<!-- Generator: Adobe Illustrator 19.2.1, SVG Export Plug-In . SVG Version: 6.00 Build 0)  -->
<svg version="1.1" id="Layer_1" xmlns="http://www.w3.org/2000/svg" xmlns:xlink="http://www.w3.org/1999/xlink" x="0px" y="0px"
	 viewBox="0 0 42 42" style="enable-background:new 0 0 42 42;" xml:space="preserve">
<style type="text/css">
	.st0{fill:#FFFFFF;}
</style>
<g>
	<path class="st0" d="M21,21.3c2.2,0,4-1.7,4-3.9c0-2.1-1.8-3.9-4-3.9s-4,1.7-4,3.9S18.8,21.3,21,21.3z M21,15.9
		c0.9,0,1.7,0.7,1.7,1.6c0,0.9-0.7,1.6-1.7,1.6c-0.9,0-1.7-0.7-1.7-1.6C19.3,16.5,20.1,15.9,21,15.9z"/>
	<path class="st0" d="M22.6,24.4c0.9-0.2,1.6-0.5,2.4-0.9c0.6-0.3,0.7-1,0.4-1.6c-0.4-0.5-1.1-0.7-1.7-0.4c-1.6,1-3.7,1-5.4,0
		c-0.5-0.3-1.3-0.1-1.6,0.4c-0.4,0.5-0.2,1.2,0.4,1.6c0.7,0.4,1.5,0.8,2.3,0.9l-2.2,2.2c-0.5,0.4-0.5,1.2,0,1.6
		c0.2,0.2,0.5,0.3,0.8,0.3c0.3,0,0.6-0.1,0.8-0.3l2.2-2.1l2.2,2.1c0.5,0.4,1.2,0.4,1.7,0s0.5-1.2,0-1.6L22.6,24.4z"/>
</g>
</svg>
